<svg width="829" height="284" viewBox="0 0 829 284" fill="none" xmlns="http://www.w3.org/2000/svg">
<path d="M72.3419 175.731L111.226 72.3419H143.78L90.126 210.997H53.6536L0 72.3419H33.1567L72.3419 175.731Z" fill="white"/>
<path d="M200.539 72.3419H271.977V218.533C271.977 256.211 244.849 283.339 207.171 283.339H145.378V253.498H206.568C226.763 253.498 241.834 238.427 241.834 217.93V210.997H200.539C160.751 210.997 130.307 180.855 130.307 141.67C130.307 102.484 160.751 72.3419 200.539 72.3419ZM161.655 141.67C161.655 164.879 178.837 182.663 202.951 182.663H241.834V100.676H202.951C178.837 100.676 161.655 118.158 161.655 141.67Z" fill="white"/>
<path d="M316.675 210.997H286.532V72.3419H373.945V100.676H316.675V210.997Z" fill="white"/>
<path d="M501.245 210.997H432.822C393.034 210.997 362.59 180.855 362.59 141.67C362.59 102.484 393.034 72.3419 432.822 72.3419H501.245V210.997ZM435.535 182.663H471.103V100.676H435.535C411.421 100.676 393.938 118.158 393.938 141.67C393.938 164.879 411.421 182.663 435.535 182.663Z" fill="white"/>
<path d="M694.098 0V210.997H625.675C585.887 210.997 555.443 180.855 555.443 141.67C555.443 102.484 585.887 72.3419 625.675 72.3419H663.956V0H694.098ZM628.086 182.663H663.956V100.676H628.086C603.972 100.676 586.791 118.158 586.791 141.67C586.791 164.879 603.972 182.663 628.086 182.663Z" fill="white"/>
<path d="M829 100.676H772.634C752.137 100.676 738.271 110.623 733.75 127.804H825.986V155.535H733.75C738.271 172.716 752.137 182.663 772.634 182.663H829V210.997H770.825C730.133 210.997 700.292 182.06 700.292 141.67C700.292 101.279 730.133 72.3419 771.126 72.3419H829V100.676Z" fill="white"/>
<rect x="527.109" y="164.303" width="37.9614" height="37.9614" transform="rotate(30 527.109 164.303)" fill="white"/>
</svg>
